<svg width="560" height="280" xmlns="http://www.w3.org/2000/svg" font-family="'JetBrains Mono', monospace">

<!-- Title -->
<text x="21" y="44" font-size="25" font-weight="600" fill="#4ade80">Statistics</text>

<!-- Row 1: Forks -->
<path fill="#89b4c1" transform="translate(21, 52)" d="M5 3.25a.75.75 0 11-1.5 0 .75.75 0 011.5 0zm0 2.122a2.25 2.25 0 10-1.5 0v.878A2.25 2.25 0 005.75 8.5h1.5v2.128a2.251 2.251 0 101.5 0V8.5h1.5a2.25 2.25 0 002.25-2.25v-.878a2.25 2.25 0 10-1.5 0v.878a.75.75 0 01-.75.75h-4.5A.75.75 0 015 6.25v-.878zm3.75 7.378a.75.75 0 11-1.5 0 .75.75 0 011.5 0zm3-8.75a.75.75 0 100-1.5.75.75 0 000 1.5z"/>
<text x="43" y="64" font-size="16" font-weight="600" fill="#89b4c1">Forks</text>
<text x="300" y="64" font-size="16" fill="#FDFD96">{{ forks }}</text>

<!-- Row 2: Years on GitHub -->
<path fill="#89b4c1" transform="translate(21, 86)" d="M5 1a2 2 0 00-2 2v1H2a1 1 0 00-1 1v9a1 1 0 001 1h12a1 1 0 001-1V5a1 1 0 00-1-1h-1V3a2 2 0 00-2-2H5zm0 1.5h6a.5.5 0 01.5.5v1h-7V3a.5.5 0 01.5-.5zM2 6h12v8H2V6zm2 2.75a.75.75 0 01.75-.75h4.5a.75.75 0 010 1.5h-4.5A.75.75 0 014 8.75zm0 2.5a.75.75 0 01.75-.75h2.5a.75.75 0 010 1.5h-2.5A.75.75 0 014 11.25z"/>
<text x="43" y="98" font-size="16" font-weight="600" fill="#89b4c1">Years on GitHub</text>
<text x="300" y="98" font-size="16" fill="#FDFD96">{{ years_on_github }} yrs</text>

<!-- Row 3: Contributions -->
<path fill="#89b4c1" transform="translate(21, 120)" d="M1 2.5A2.5 2.5 0 013.5 0h8.75a.75.75 0 01.75.75v3.5a.75.75 0 01-1.5 0V1.5h-8a1 1 0 00-1 1v6.708A2.492 2.492 0 013.5 9h3.25a.75.75 0 010 1.5H3.5a1 1 0 100 2h5.75a.75.75 0 010 1.5H3.5A2.5 2.5 0 011 11.5v-9zm13.23 7.79a.75.75 0 001.06-1.06l-2.505-2.505a.75.75 0 00-1.06 0L9.22 9.229a.75.75 0 001.06 1.061l1.225-1.224v6.184a.75.75 0 001.5 0V9.066l1.224 1.224z"/>
<text x="43" y="132" font-size="16" font-weight="600" fill="#89b4c1">Contributions</text>
<text x="300" y="132" font-size="16" fill="#FDFD96">{{ contributions }}</text>

<!-- Row 4: Streak -->
<path fill="#89b4c1" transform="translate(21, 154)" d="M11.93 8.5a4.002 4.002 0 01-7.86 0H.75a.75.75 0 010-1.5h3.32a4.002 4.002 0 017.86 0h3.32a.75.75 0 010 1.5h-3.32zM8 5.5a2.5 2.5 0 100 5 2.5 2.5 0 000-5zm0 1.5a1 1 0 110 2 1 1 0 010-2z"/>
<text x="43" y="166" font-size="16" font-weight="600" fill="#89b4c1">Streak (best / now)</text>
<text x="300" y="166" font-size="16" fill="#FDFD96">{{ longest_streak }}d / {{ current_streak }}d</text>

<!-- Row 5: Lines changed -->
<path fill="#89b4c1" transform="translate(21, 188)" d="M8.75 1.75a.75.75 0 00-1.5 0V5H4a.75.75 0 000 1.5h3.25v3.25a.75.75 0 001.5 0V6.5H12A.75.75 0 0012 5H8.75V1.75zM4 13a.75.75 0 000 1.5h8a.75.75 0 100-1.5H4z"/>
<text x="43" y="200" font-size="16" font-weight="600" fill="#89b4c1">Lines changed</text>
<text x="300" y="200" font-size="16" fill="#FDFD96">{{ lines_changed }}</text>

<!-- Row 6: PRs -->
<path fill="#89b4c1" transform="translate(21, 222)" fill-rule="evenodd" d="M11.28 6.78a.75.75 0 00-1.06-1.06L7.25 8.69 5.78 7.22a.75.75 0 00-1.06 1.06l2 2a.75.75 0 001.06 0l3.5-3.5zM16 8A8 8 0 110 8a8 8 0 0116 0zm-1.5 0a6.5 6.5 0 11-13 0 6.5 6.5 0 0113 0z"/>
<text x="43" y="234" font-size="16" font-weight="600" fill="#89b4c1">PRs opened / merged</text>
<text x="300" y="234" font-size="16" fill="#FDFD96">{{ prs_opened }} / {{ prs_merged }}</text>

<!-- Row 7: Repos -->
<path fill="#89b4c1" transform="translate(21, 256)" d="M2 2.5A2.5 2.5 0 014.5 0h8.75a.75.75 0 01.75.75v12.5a.75.75 0 01-.75.75h-2.5a.75.75 0 110-1.5h1.75v-2h-8a1 1 0 00-.714 1.7.75.75 0 01-1.072 1.05A2.495 2.495 0 012 11.5v-9zm10.5-1V9h-8c-.356 0-.694.074-1 .208V2.5a1 1 0 011-1h8zM5 12.25v3.25a.25.25 0 00.4.2l1.45-1.087a.25.25 0 01.3 0L8.6 15.7a.25.25 0 00.4-.2v-3.25a.25.25 0 00-.25-.25h-3.5a.25.25 0 00-.25.25z"/>
<text x="43" y="268" font-size="16" font-weight="600" fill="#89b4c1">Repos contributed</text>
<text x="300" y="268" font-size="16" fill="#FDFD96">{{ repos }}</text>

</svg>
